<svg xmlns="http://www.w3.org/2000/svg" width="185" height="164" viewBox="0 0 108 35" fill="none">
    <g clip-path="url(#clip0_2_73)">
        <path d="M32.0001 15.9999V28.0327C32.0001 30.2218 30.2256 31.9999 28.0329 31.9999C26.4365 31.9999 25.1056 30.869 24.7965 29.3672C24.7529 29.149 24.7274 28.9236 24.7274 28.6945L24.7274 15.9999C24.7274 15.4945 24.6838 14.9963 24.6001 14.509C24.2983 12.7454 23.462 11.1199 22.1711 9.82902C20.5238 8.18175 18.3311 7.27266 16.0001 7.27266C13.6692 7.27266 11.4765 8.18175 9.82924 9.82902C8.53833 11.1199 7.70196 12.7454 7.40015 14.509C7.9856 9.62539 11.4256 5.62175 16.0001 4.20357C17.1565 3.84721 18.382 3.65448 19.6547 3.65448C26.4474 3.65448 31.9601 9.14175 32.0001 15.9272C32.0001 15.9381 32.0001 15.9527 32.0001 15.9636C32.0001 15.9745 32.0001 15.989 32.0001 15.9999Z" fill="url(#paint0_linear_2_73)"/>
        <path d="M32 15.9273C31.96 9.14182 26.4473 3.65455 19.6545 3.65455C18.3818 3.65455 17.1564 3.84727 16 4.20364C11.4255 5.62182 7.98545 9.62545 7.4 14.5091C7.31636 14.9964 7.27273 15.4945 7.27273 16C7.27273 16.5055 7.31636 17.0036 7.4 17.4909C7.70182 19.2545 8.53818 20.88 9.82909 22.1709C11.4764 23.8182 13.6691 24.7273 16 24.7273C18.3309 24.7273 20.5236 23.8182 22.1709 22.1709C23.4618 20.88 24.2982 19.2545 24.6 17.4909C24.0145 22.3745 20.5745 26.3782 16 27.7964C14.8436 28.1527 13.6182 28.3455 12.3455 28.3455C5.52727 28.3455 0 22.8182 0 16C0 13.84 0.425454 11.7455 1.25818 9.77091C2.06545 7.86545 3.21818 6.15273 4.68364 4.68727C6.15273 3.21818 7.86182 2.06545 9.76727 1.26182C11.7455 0.425455 13.84 0 16 0C18.16 0 20.2545 0.425454 22.2291 1.25818C24.1345 2.06545 25.8473 3.21818 27.3127 4.68364C28.7818 6.15273 29.9345 7.86182 30.7382 9.76727C31.5673 11.7236 31.9891 13.7927 32 15.9273Z" fill="url(#paint1_linear_2_73)"/>
        <path d="M24.7964 29.3672C23.9891 29.9018 23.1309 30.3599 22.2291 30.7418C20.2545 31.5745 18.16 31.9999 16 31.9999C13.84 31.9999 11.7455 31.5745 9.77091 30.7418C7.86545 29.9345 6.15273 28.7818 4.68727 27.3163C3.21818 25.8472 2.06545 24.1381 1.26182 22.2327C0.425455 20.2545 0 18.1599 0 15.9999C0 22.8181 5.52727 28.3454 12.3455 28.3454C13.6182 28.3454 14.8436 28.1527 16 27.7963C20.5745 26.3781 24.0145 22.3745 24.6 17.4908C24.6836 17.0036 24.7273 16.5054 24.7273 15.9999V28.6945C24.7273 28.9236 24.7527 29.149 24.7964 29.3672Z" fill="url(#paint2_linear_2_73)"/>
    </g>
    <path d="M46.064 4.80001H44.816L40.608 16H41.84L42.848 13.152H48.016L49.04 16H50.272L46.064 4.80001ZM45.44 5.93601L47.664 12.16H43.2L45.44 5.93601Z" fill="#121926"/>
    <path d="M51.771 16H52.987V4.32001H51.771V16Z" fill="#121926"/>
    <path d="M55.2598 16H56.4757V4.32001H55.2598V16Z" fill="#121926"/>
    <path d="M65.4045 7.80801H64.1885V12.624C64.1885 14.32 63.1645 15.168 61.8205 15.168C60.4125 15.168 59.8045 14.192 59.8045 12.8V7.80801H58.5885V12.976C58.5885 14.944 59.7245 16.192 61.5165 16.192C62.9405 16.192 63.8685 15.536 64.2525 14.608V16H65.4045V7.80801Z" fill="#121926"/>
    <path d="M67.5166 16H68.7326V11.984C68.7326 9.92001 69.7246 8.89601 71.2766 8.89601H71.5166V7.76001H71.3246C69.8366 7.76001 68.9566 8.43201 68.6526 9.69601V7.80801H67.5166V16Z" fill="#121926"/>
    <path d="M75.7682 16.192C77.4803 16.192 78.8403 15.152 79.1123 13.68H78.0243C77.7523 14.608 77.0003 15.264 75.7682 15.264C74.0563 15.264 73.3203 14.112 73.3203 12.688V12.4H79.1922V11.184C79.1922 9.16801 78.0562 7.61601 75.7202 7.61601C73.4162 7.61601 72.1523 9.08801 72.1523 11.312V12.624C72.1523 14.832 73.6403 16.192 75.7682 16.192ZM73.3203 11.216C73.3203 9.71201 73.9603 8.54401 75.7202 8.54401C77.3202 8.54401 78.0563 9.63201 78.0563 11.088V11.472H73.3203V11.216Z" fill="#121926"/>
    <path fill-rule="evenodd" clip-rule="evenodd" d="M76.5459 32.224C79.9379 32.224 81.6819 30.048 81.6819 27.12V25.68C81.6819 22.752 79.9379 20.576 76.5459 20.576C73.1539 20.576 71.4099 22.752 71.4099 25.68V27.12C71.4099 30.048 73.1539 32.224 76.5459 32.224ZM76.5459 22.864C78.1459 22.864 78.9299 23.936 78.9299 25.536V27.264C78.9299 28.864 78.1459 29.936 76.5459 29.936C74.9459 29.936 74.1619 28.864 74.1619 27.264V25.536C74.1619 23.936 74.9459 22.864 76.5459 22.864Z" fill="#121926"/>
    <path fill-rule="evenodd" clip-rule="evenodd" d="M82.7744 34.784V23.616H85.3344V24.496C85.5904 24.032 86.4864 23.424 87.6384 23.424C90.0064 23.424 91.1904 25.216 91.1904 27.12V28.496C91.1904 30.4 90.0064 32.192 87.6384 32.192C86.6304 32.192 85.8144 31.728 85.4624 31.312V34.784H82.7744ZM85.4624 27.216V28.4C85.4624 29.456 86.1664 29.984 86.9664 29.984C88.0224 29.984 88.5024 29.344 88.5024 28.352V27.264C88.5024 26.304 88.0224 25.632 86.9664 25.632C86.1664 25.632 85.4624 26.16 85.4624 27.216Z" fill="#121926"/>
    <path d="M99.3668 29.264C99.3668 30.944 97.8628 32.192 95.6228 32.192C93.3988 32.192 91.9268 31.2 91.9268 29.504V29.328H94.2948V29.44C94.2948 30.032 94.8388 30.336 95.6388 30.336C96.3588 30.336 96.9028 30.08 96.9028 29.6C96.9028 29.296 96.7588 29.12 96.3428 29.024L94.0228 28.496C92.7268 28.208 92.0548 27.424 92.0548 26.24C92.0548 24.432 93.4948 23.424 95.5268 23.424C97.5108 23.424 98.9348 24.448 98.9348 26.128V26.272H96.6148V26.128C96.6148 25.616 96.3108 25.28 95.5588 25.28C94.8708 25.28 94.5508 25.504 94.5508 25.968C94.5508 26.288 94.7108 26.448 95.0788 26.528L97.5268 27.12C98.6628 27.392 99.3668 28.112 99.3668 29.264Z" fill="#121926"/>
    <path d="M66.1374 21.36H68.8254V23.616H70.4414V25.696H68.8254V29.264C68.8254 29.648 69.0174 29.824 69.4334 29.824H70.3134V32H68.5374C66.9374 32 66.1374 31.056 66.1374 29.52V25.696H65.0494V23.616H66.1374V21.36Z" fill="#121926"/>
    <path d="M60.9609 32.192C63.2009 32.192 64.7049 30.944 64.7049 29.264C64.7049 28.112 64.0009 27.392 62.8649 27.12L60.4169 26.528C60.0489 26.448 59.8889 26.288 59.8889 25.968C59.8889 25.504 60.2089 25.28 60.8969 25.28C61.6489 25.28 61.9529 25.616 61.9529 26.128V26.272H64.2729V26.128C64.2729 24.448 62.8489 23.424 60.8649 23.424C58.8329 23.424 57.3929 24.432 57.3929 26.24C57.3929 27.424 58.0649 28.208 59.3609 28.496L61.6809 29.024C62.0969 29.12 62.2409 29.296 62.2409 29.6C62.2409 30.08 61.6969 30.336 60.9769 30.336C60.1769 30.336 59.6329 30.032 59.6329 29.44V29.328H57.2649V29.504C57.2649 31.2 58.7369 32.192 60.9609 32.192Z" fill="#121926"/>
    <path fill-rule="evenodd" clip-rule="evenodd" d="M56.3304 28.656H51.1144V28.848C51.1144 29.68 51.6104 30.304 52.5544 30.304C53.3064 30.304 53.7384 29.92 53.9144 29.504H56.2824C55.9944 31.056 54.4584 32.192 52.5544 32.192C50.1384 32.192 48.5224 30.8 48.5224 28.4V27.36C48.5224 25.024 49.9464 23.424 52.4904 23.424C55.0344 23.424 56.3304 25.12 56.3304 27.12V28.656ZM51.1144 26.912V27.088H53.8664V26.784C53.8664 25.952 53.4504 25.328 52.5064 25.328C51.5304 25.328 51.1144 25.952 51.1144 26.912Z" fill="#121926"/>
    <path d="M49.2 20.8H40.4V23.12H43.424V32H46.176V23.12H49.2V20.8Z" fill="#121926"/>
    <defs>
        <linearGradient id="paint0_linear_2_73" x1="14.3154" y1="4.90373" x2="34.5955" y2="38.8455" gradientUnits="userSpaceOnUse">
            <stop stop-color="#0B9363"/>
            <stop offset="0.218" stop-color="#16B67B"/>
            <stop offset="0.5304" stop-color="#36CE94"/>
            <stop offset="0.8019" stop-color="#6CE5B4"/>
            <stop offset="1" stop-color="#6CE5B4"/>
        </linearGradient>
        <linearGradient id="paint1_linear_2_73" x1="11.5" y1="1" x2="18.8956" y2="27.2961" gradientUnits="userSpaceOnUse">
            <stop stop-color="#6CE5B4"/>
            <stop offset="0.139197" stop-color="#36CE94"/>
            <stop offset="0.4911" stop-color="#36CE94"/>
            <stop offset="0.8259" stop-color="#6CE5B4"/>
            <stop offset="1" stop-color="#A6F2CF"/>
        </linearGradient>
        <linearGradient id="paint2_linear_2_73" x1="1.98265" y1="25.951" x2="25.7888" y2="19.9233" gradientUnits="userSpaceOnUse">
            <stop stop-color="#6CE5B4"/>
            <stop offset="0.2803" stop-color="#6CE5B4"/>
            <stop offset="0.4913" stop-color="#36CE94"/>
            <stop offset="0.6796" stop-color="#16B67B"/>
            <stop offset="1" stop-color="#0B9363"/>
        </linearGradient>
        <clipPath id="clip0_2_73">
            <rect width="32" height="32" fill="white"/>
        </clipPath>
    </defs>
</svg>